# xmcd
#
# Track frame offsets: 
#        150
#        17420
#        30123
#        48527
#        66960
#        83084
#        100420
#        121396
#        137226
#        151073
#        168639
#        190039
#        210822
#        230666
#        250490
#        273112
#
# Disc length: 3937 seconds
#
# Revision: 0
# Processed by: cddbd v1.5.2PL0 Copyright (c) Steve Scherf et al.
# Submitted via: ExactAudioCopy v0.95a5
#
DISCID=cc0f5f10
DTITLE=Joe Cocker - Hymn For My Soul
DYEAR=2007
DGENRE=
TTITLE0=Joe Cocker/1. You Haven?t Done Nothin?
TTITLE1=Joe Cocker/2. One Word (Peace)
TTITLE2=Joe Cocker/3. Love Is For Me
TTITLE3=Joe Cocker/4. Don?t Give Up On
TTITLE4=Joe Cocker/5. Long As I Can See The Light
TTITLE5=Joe Cocker/6. Beware Of Darkness
TTITLE6=Joe Cocker/7. Just Pass It On
TTITLE7=Joe Cocker/8. Rivers Invitation
TTITLE8=Joe Cocker/9. Ring Them Bells
TTITLE9=Joe Cocker/10. Hymn 4 My Soul
TTITLE10=Joe Cocker+Bonus_Tonight
TTITLE11=Joe Cocker+Bonus_N'oubliez Jamais
TTITLE12=Joe Cocker+Bonus_One
TTITLE13=Joe Cocker+Bonus_You Can Leave Your Hate On
TTITLE14=Joe Cocker+Bonus_Unchain My Heart
TTITLE15=Joe Cocker+Bonus_Dangerous Mood
EXTD=
EXTT0=
EXTT1=
EXTT2=
EXTT3=
EXTT4=
EXTT5=
EXTT6=
EXTT7=
EXTT8=
EXTT9=
EXTT10=
EXTT11=
EXTT12=
EXTT13=
EXTT14=
EXTT15=
PLAYORDER=
